<svg width="88" height="32" viewBox="4 0 88 32" fill="none" xmlns="http://www.w3.org/2000/svg">
<g filter="url(#filter0_d)">
<path d="M2 4H78C80.2091 4 82 5.79086 82 8V24C82 26.2091 80.2091 28 78 28H2V4Z" fill="#2F80ED"/>
<path d="M28.5527 18.3184C28.5527 18.0254 28.4414 17.7988 28.2188 17.6387C28 17.4746 27.6152 17.334 27.0645 17.2168C26.5176 17.0996 26.082 16.959 25.7578 16.7949C25.4375 16.6309 25.1992 16.4355 25.043 16.209C24.8906 15.9824 24.8145 15.7129 24.8145 15.4004C24.8145 14.8809 25.0332 14.4414 25.4707 14.082C25.9121 13.7227 26.4746 13.543 27.1582 13.543C27.877 13.543 28.459 13.7285 28.9043 14.0996C29.3535 14.4707 29.5781 14.9453 29.5781 15.5234H28.4883C28.4883 15.2266 28.3613 14.9707 28.1074 14.7559C27.8574 14.541 27.541 14.4336 27.1582 14.4336C26.7637 14.4336 26.4551 14.5195 26.2324 14.6914C26.0098 14.8633 25.8984 15.0879 25.8984 15.3652C25.8984 15.627 26.002 15.8242 26.209 15.957C26.416 16.0898 26.7891 16.2168 27.3281 16.3379C27.8711 16.459 28.3105 16.6035 28.6465 16.7715C28.9824 16.9395 29.2305 17.1426 29.3906 17.3809C29.5547 17.6152 29.6367 17.9023 29.6367 18.2422C29.6367 18.8086 29.4102 19.2637 28.957 19.6074C28.5039 19.9473 27.916 20.1172 27.1934 20.1172C26.6855 20.1172 26.2363 20.0273 25.8457 19.8477C25.4551 19.668 25.1484 19.418 24.9258 19.0977C24.707 18.7734 24.5977 18.4238 24.5977 18.0488H25.6816C25.7012 18.4121 25.8457 18.7012 26.1152 18.916C26.3887 19.127 26.748 19.2324 27.1934 19.2324C27.6035 19.2324 27.9316 19.1504 28.1777 18.9863C28.4277 18.8184 28.5527 18.5957 28.5527 18.3184ZM33.6797 20.1172C32.8203 20.1172 32.1211 19.8359 31.582 19.2734C31.043 18.707 30.7734 17.9512 30.7734 17.0059V16.8066C30.7734 16.1777 30.8926 15.6172 31.1309 15.125C31.373 14.6289 31.709 14.2422 32.1387 13.9648C32.5723 13.6836 33.041 13.543 33.5449 13.543C34.3691 13.543 35.0098 13.8145 35.4668 14.3574C35.9238 14.9004 36.1523 15.6777 36.1523 16.6895V17.1406H31.8574C31.873 17.7656 32.0547 18.2715 32.4023 18.6582C32.7539 19.041 33.1992 19.2324 33.7383 19.2324C34.1211 19.2324 34.4453 19.1543 34.7109 18.998C34.9766 18.8418 35.209 18.6348 35.4082 18.377L36.0703 18.8926C35.5391 19.709 34.7422 20.1172 33.6797 20.1172ZM33.5449 14.4336C33.1074 14.4336 32.7402 14.5938 32.4434 14.9141C32.1465 15.2305 31.9629 15.6758 31.8926 16.25H35.0684V16.168C35.0371 15.6172 34.8887 15.1914 34.623 14.8906C34.3574 14.5859 33.998 14.4336 33.5449 14.4336ZM41.3262 20C41.2637 19.875 41.2129 19.6523 41.1738 19.332C40.6699 19.8555 40.0684 20.1172 39.3691 20.1172C38.7441 20.1172 38.2305 19.9414 37.8281 19.5898C37.4297 19.2344 37.2305 18.7852 37.2305 18.2422C37.2305 17.582 37.4805 17.0703 37.9805 16.707C38.4844 16.3398 39.1914 16.1562 40.1016 16.1562H41.1562V15.6582C41.1562 15.2793 41.043 14.9785 40.8164 14.7559C40.5898 14.5293 40.2559 14.416 39.8145 14.416C39.4277 14.416 39.1035 14.5137 38.8418 14.709C38.5801 14.9043 38.4492 15.1406 38.4492 15.418H37.3594C37.3594 15.1016 37.4707 14.7969 37.6934 14.5039C37.9199 14.207 38.2246 13.9727 38.6074 13.8008C38.9941 13.6289 39.418 13.543 39.8789 13.543C40.6094 13.543 41.1816 13.7266 41.5957 14.0938C42.0098 14.457 42.2246 14.959 42.2402 15.5996V18.5176C42.2402 19.0996 42.3145 19.5625 42.4629 19.9062V20H41.3262ZM39.5273 19.1738C39.8672 19.1738 40.1895 19.0859 40.4941 18.9102C40.7988 18.7344 41.0195 18.5059 41.1562 18.2246V16.9238H40.3066C38.9785 16.9238 38.3145 17.3125 38.3145 18.0898C38.3145 18.4297 38.4277 18.6953 38.6543 18.8867C38.8809 19.0781 39.1719 19.1738 39.5273 19.1738ZM47.0039 14.6328C46.8398 14.6055 46.6621 14.5918 46.4707 14.5918C45.7598 14.5918 45.2773 14.8945 45.0234 15.5V20H43.9395V13.6602H44.9941L45.0117 14.3926C45.3672 13.8262 45.8711 13.543 46.5234 13.543C46.7344 13.543 46.8945 13.5703 47.0039 13.625V14.6328ZM50.4316 19.2324C50.8184 19.2324 51.1562 19.1152 51.4453 18.8809C51.7344 18.6465 51.8945 18.3535 51.9258 18.002H52.9512C52.9316 18.3652 52.8066 18.7109 52.5762 19.0391C52.3457 19.3672 52.0371 19.6289 51.6504 19.8242C51.2676 20.0195 50.8613 20.1172 50.4316 20.1172C49.5684 20.1172 48.8809 19.8301 48.3691 19.2559C47.8613 18.6777 47.6074 17.8887 47.6074 16.8887V16.707C47.6074 16.0898 47.7207 15.541 47.9473 15.0605C48.1738 14.5801 48.498 14.207 48.9199 13.9414C49.3457 13.6758 49.8477 13.543 50.4258 13.543C51.1367 13.543 51.7266 13.7559 52.1953 14.1816C52.668 14.6074 52.9199 15.1602 52.9512 15.8398H51.9258C51.8945 15.4297 51.7383 15.0938 51.457 14.832C51.1797 14.5664 50.8359 14.4336 50.4258 14.4336C49.875 14.4336 49.4473 14.6328 49.1426 15.0312C48.8418 15.4258 48.6914 15.998 48.6914 16.748V16.9531C48.6914 17.6836 48.8418 18.2461 49.1426 18.6406C49.4434 19.0352 49.873 19.2324 50.4316 19.2324ZM55.2539 14.4277C55.7344 13.8379 56.3594 13.543 57.1289 13.543C58.4688 13.543 59.1445 14.2988 59.1562 15.8105V20H58.0723V15.8047C58.0684 15.3477 57.9629 15.0098 57.7559 14.791C57.5527 14.5723 57.2344 14.4629 56.8008 14.4629C56.4492 14.4629 56.1406 14.5566 55.875 14.7441C55.6094 14.9316 55.4023 15.1777 55.2539 15.4824V20H54.1699V11H55.2539V14.4277Z" fill="white"/>
</g>
<defs>
<filter id="filter0_d" x="0" y="0" width="88" height="32" filterUnits="userSpaceOnUse" color-interpolation-filters="sRGB">
<feFlood flood-opacity="0" result="BackgroundImageFix"/>
<feColorMatrix in="SourceAlpha" type="matrix" values="0 0 0 0 0 0 0 0 0 0 0 0 0 0 0 0 0 0 127 0" result="hardAlpha"/>
<feOffset dx="2"/>
<feGaussianBlur stdDeviation="2"/>
<feColorMatrix type="matrix" values="0 0 0 0 0.184314 0 0 0 0 0.501961 0 0 0 0 0.929412 0 0 0 1 0"/>
<feBlend mode="normal" in2="BackgroundImageFix" result="effect1_dropShadow"/>
<feBlend mode="normal" in="SourceGraphic" in2="effect1_dropShadow" result="shape"/>
</filter>
</defs>
</svg>
