<svg width="128" height="40" viewBox="0 0 128 40" fill="none" xmlns="http://www.w3.org/2000/svg">
<g filter="url(#filter0_d)">
<rect x="2" y="4" width="120" height="32" rx="5" fill="#2F80ED"/>
<path d="M48.2539 18.0602L48.2832 18.7633C48.748 18.2164 49.375 17.943 50.1641 17.943C51.0508 17.943 51.6543 18.2828 51.9746 18.9625C52.1855 18.6578 52.459 18.4117 52.7949 18.2242C53.1348 18.0367 53.5352 17.943 53.9961 17.943C55.3867 17.943 56.0938 18.6793 56.1172 20.152V24.4H55.0332V20.2164C55.0332 19.7633 54.9297 19.4254 54.7227 19.2028C54.5156 18.9762 54.168 18.8629 53.6797 18.8629C53.2773 18.8629 52.9434 18.984 52.6777 19.2262C52.4121 19.4645 52.2578 19.7867 52.2148 20.193V24.4H51.125V20.2457C51.125 19.3239 50.6738 18.8629 49.7715 18.8629C49.0605 18.8629 48.5742 19.1656 48.3125 19.7711V24.4H47.2285V18.0602H48.2539ZM57.4707 21.1715C57.4707 20.5504 57.5918 19.9918 57.834 19.4957C58.0801 18.9996 58.4199 18.6168 58.8535 18.3473C59.291 18.0778 59.7891 17.943 60.3477 17.943C61.2109 17.943 61.9082 18.2418 62.4395 18.8395C62.9746 19.4371 63.2422 20.2321 63.2422 21.2242V21.3004C63.2422 21.9176 63.123 22.4723 62.8848 22.9645C62.6504 23.4528 62.3125 23.8336 61.8711 24.1071C61.4336 24.3805 60.9297 24.5172 60.3594 24.5172C59.5 24.5172 58.8027 24.2184 58.2676 23.6207C57.7363 23.0231 57.4707 22.2321 57.4707 21.2477V21.1715ZM58.5605 21.3004C58.5605 22.0035 58.7227 22.568 59.0469 22.9938C59.375 23.4196 59.8125 23.6324 60.3594 23.6324C60.9102 23.6324 61.3477 23.4176 61.6719 22.9879C61.9961 22.5543 62.1582 21.9489 62.1582 21.1715C62.1582 20.4762 61.9922 19.9137 61.6602 19.484C61.332 19.0504 60.8945 18.8336 60.3477 18.8336C59.8125 18.8336 59.3809 19.0465 59.0527 19.4723C58.7246 19.8981 58.5605 20.5074 58.5605 21.3004ZM67.666 19.0328C67.502 19.0055 67.3242 18.9918 67.1328 18.9918C66.4219 18.9918 65.9395 19.2946 65.6855 19.9V24.4H64.6016V18.0602H65.6562L65.6738 18.7926C66.0293 18.2262 66.5332 17.943 67.1855 17.943C67.3965 17.943 67.5566 17.9703 67.666 18.025V19.0328ZM71.1816 24.5172C70.3223 24.5172 69.623 24.236 69.084 23.6735C68.5449 23.1071 68.2754 22.3512 68.2754 21.4059V21.2067C68.2754 20.5778 68.3945 20.0172 68.6328 19.525C68.875 19.0289 69.2109 18.6422 69.6406 18.3649C70.0742 18.0836 70.543 17.943 71.0469 17.943C71.8711 17.943 72.5117 18.2145 72.9688 18.7574C73.4258 19.3004 73.6543 20.0778 73.6543 21.0895V21.5406H69.3594C69.375 22.1656 69.5566 22.6715 69.9043 23.0582C70.2559 23.441 70.7012 23.6324 71.2402 23.6324C71.623 23.6324 71.9473 23.5543 72.2129 23.3981C72.4785 23.2418 72.7109 23.0348 72.9102 22.777L73.5723 23.2926C73.041 24.109 72.2441 24.5172 71.1816 24.5172ZM71.0469 18.8336C70.6094 18.8336 70.2422 18.9938 69.9453 19.3141C69.6484 19.6305 69.4648 20.0758 69.3945 20.65H72.5703V20.568C72.5391 20.0172 72.3906 19.5914 72.125 19.2906C71.8594 18.986 71.5 18.8336 71.0469 18.8336ZM74.9375 23.8317C74.9375 23.6442 74.9922 23.4879 75.1016 23.3629C75.2148 23.2379 75.3828 23.1754 75.6055 23.1754C75.8281 23.1754 75.9961 23.2379 76.1094 23.3629C76.2266 23.4879 76.2852 23.6442 76.2852 23.8317C76.2852 24.0114 76.2266 24.1617 76.1094 24.2828C75.9961 24.4039 75.8281 24.4645 75.6055 24.4645C75.3828 24.4645 75.2148 24.4039 75.1016 24.2828C74.9922 24.1617 74.9375 24.0114 74.9375 23.8317ZM78.1016 23.8317C78.1016 23.6442 78.1562 23.4879 78.2656 23.3629C78.3789 23.2379 78.5469 23.1754 78.7695 23.1754C78.9922 23.1754 79.1602 23.2379 79.2734 23.3629C79.3906 23.4879 79.4492 23.6442 79.4492 23.8317C79.4492 24.0114 79.3906 24.1617 79.2734 24.2828C79.1602 24.4039 78.9922 24.4645 78.7695 24.4645C78.5469 24.4645 78.3789 24.4039 78.2656 24.2828C78.1562 24.1617 78.1016 24.0114 78.1016 23.8317ZM81.2656 23.8317C81.2656 23.6442 81.3203 23.4879 81.4297 23.3629C81.543 23.2379 81.7109 23.1754 81.9336 23.1754C82.1562 23.1754 82.3242 23.2379 82.4375 23.3629C82.5547 23.4879 82.6133 23.6442 82.6133 23.8317C82.6133 24.0114 82.5547 24.1617 82.4375 24.2828C82.3242 24.4039 82.1562 24.4645 81.9336 24.4645C81.7109 24.4645 81.543 24.4039 81.4297 24.2828C81.3203 24.1617 81.2656 24.0114 81.2656 23.8317Z" fill="white"/>
</g>
<defs>
<filter id="filter0_d" x="0" y="0" width="128" height="40" filterUnits="userSpaceOnUse" color-interpolation-filters="sRGB">
<feFlood flood-opacity="0" result="BackgroundImageFix"/>
<feColorMatrix in="SourceAlpha" type="matrix" values="0 0 0 0 0 0 0 0 0 0 0 0 0 0 0 0 0 0 127 0" result="hardAlpha"/>
<feOffset dx="2"/>
<feGaussianBlur stdDeviation="2"/>
<feColorMatrix type="matrix" values="0 0 0 0 0.184314 0 0 0 0 0.501961 0 0 0 0 0.929412 0 0 0 1 0"/>
<feBlend mode="normal" in2="BackgroundImageFix" result="effect1_dropShadow"/>
<feBlend mode="normal" in="SourceGraphic" in2="effect1_dropShadow" result="shape"/>
</filter>
</defs>
</svg>
